<svg width="24" height="24" viewBox="0 0 24 24" fill="none" xmlns="http://www.w3.org/2000/svg">
<path fill-rule="evenodd" clip-rule="evenodd" d="M20.1122 3.88713L4.11901 9.48429L10.5817 12.3578L13.4698 9.46965C13.7627 9.17675 14.2375 9.17675 14.5304 9.46965C14.8233 9.76254 14.8233 10.2374 14.5304 10.5303L11.6423 13.4185L14.5154 19.8822L20.1122 3.88713ZM10.1795 13.8205L3.01234 10.6338C2.77766 10.529 2.5798 10.3563 2.44431 10.1379C2.30881 9.91953 2.24192 9.66553 2.25226 9.40873C2.26261 9.15194 2.34972 8.90415 2.50233 8.69737C2.65495 8.49059 2.86607 8.33432 3.10842 8.24876L3.11036 8.24808L20.0404 2.32308L20.0434 2.322C20.2714 2.24335 20.5168 2.23041 20.7517 2.28465C20.9866 2.33889 21.2016 2.45814 21.3719 2.62874C21.5423 2.79935 21.6612 3.01445 21.7151 3.24945C21.769 3.48445 21.7557 3.72987 21.6767 3.95768L15.752 20.8897C15.6669 21.1328 15.5106 21.3449 15.3035 21.4981C15.0965 21.6513 14.8482 21.7387 14.5909 21.7491C14.3335 21.7594 14.079 21.6922 13.8603 21.5561C13.6418 21.4202 13.4692 21.2218 13.3648 20.9866M13.3648 20.9866L10.1795 13.8205L13.3648 20.9866Z" fill="#545454"/>
</svg>
